<svg width="20" height="21" viewBox="0 0 20 21" fill="none" xmlns="http://www.w3.org/2000/svg">
<path d="M0.617293 12.6347C0.733552 13.168 0.894886 13.6927 1.09353 14.201C2.58516 18.0099 6.14457 20.5146 10.0788 20.5303C10.2903 20.5309 10.4977 20.5236 10.7126 20.5123C15.6724 20.1968 19.5384 15.9874 19.6257 10.8075C19.6784 7.98918 18.582 5.26009 16.6152 3.30044C14.7646 1.44519 12.2909 0.426268 9.7362 0.471099C9.58526 0.473515 9.43819 0.479804 9.28746 0.490088C4.32769 0.805588 0.461653 5.015 0.374305 10.1949C0.35855 11.0136 0.440909 11.8308 0.617293 12.6347ZM9.58979 1.0637L9.703 1.06188L9.74073 1.06128C12.1445 1.0228 14.4732 1.98108 16.2227 3.72384C16.2809 3.78193 16.3352 3.83616 16.3896 3.89431L16.4479 3.95634C16.4829 3.99513 16.5179 4.03392 16.5529 4.07271L16.6191 4.14642C16.6502 4.18133 16.6814 4.21625 16.7125 4.25116C16.7359 4.27833 16.7555 4.30557 16.7788 4.3288C16.8062 4.36378 16.8373 4.3987 16.8647 4.43368C16.888 4.46085 16.9076 4.48808 16.9311 4.51918C16.9585 4.55416 16.9859 4.58914 17.0132 4.62411C17.0366 4.65128 17.0563 4.68245 17.0797 4.70962C17.1031 4.73679 17.1307 4.77963 17.158 4.81461L17.2208 4.90411C17.2444 4.93915 17.2718 4.97413 17.2954 5.00916L17.3582 5.09866C17.3818 5.1337 17.4054 5.16874 17.429 5.20378L17.4881 5.29727C17.5117 5.33231 17.5354 5.37128 17.559 5.40632C17.5826 5.44135 17.5984 5.46865 17.6182 5.49981C17.6379 5.53098 17.6617 5.57388 17.6853 5.60892C17.7089 5.64395 17.7247 5.67125 17.7407 5.7064C17.7568 5.74156 17.7843 5.78047 17.8042 5.81951C17.8241 5.85854 17.8399 5.88583 17.8559 5.91705C17.8718 5.94828 17.8956 5.99118 17.9155 6.03021C17.9355 6.06925 17.9513 6.09654 17.9672 6.12776C17.9832 6.15899 18.0071 6.20583 18.027 6.24486C18.043 6.27608 18.059 6.31124 18.0749 6.34247C18.0909 6.37369 18.111 6.42059 18.1309 6.45962C18.1509 6.49865 18.1629 6.526 18.179 6.56116C18.195 6.59632 18.2151 6.63928 18.2312 6.67838C18.2473 6.71353 18.2594 6.74482 18.2755 6.77998C18.2916 6.81907 18.3078 6.85816 18.324 6.90119L18.3645 7.00285C18.3807 7.04194 18.3968 7.08103 18.4093 7.12412C18.4218 7.1672 18.4338 7.19456 18.4498 7.22578C18.4659 7.26487 18.4784 7.30796 18.4946 7.34705C18.5107 7.38614 18.5191 7.41749 18.5314 7.45271C18.5438 7.49186 18.56 7.53488 18.5724 7.57404L18.6053 7.67582C18.6178 7.71891 18.6302 7.75806 18.6427 7.80114C18.6549 7.83636 18.6634 7.87164 18.6757 7.90686C18.6882 7.94994 18.7006 7.9891 18.7093 8.03224C18.7178 8.06752 18.7301 8.10274 18.7386 8.13802C18.751 8.18111 18.7596 8.22032 18.7684 8.26346C18.7771 8.30661 18.7853 8.33402 18.794 8.37323C18.8026 8.41245 18.8113 8.45559 18.8238 8.49868C18.8362 8.54176 18.8409 8.57317 18.8494 8.60845C18.8579 8.64373 18.8667 8.69081 18.8754 8.73395C18.8841 8.7771 18.8887 8.80851 18.8972 8.84379C18.9057 8.87907 18.9107 8.92621 18.9195 8.96935C18.9282 9.0125 18.9328 9.0439 18.9376 9.08318C18.9424 9.12245 18.9512 9.16559 18.956 9.20487C18.9608 9.24414 18.9694 9.28335 18.9742 9.32263C18.9791 9.3619 18.9839 9.40117 18.9887 9.44045C18.9936 9.47972 18.9985 9.52292 19.0034 9.56613C19.0081 9.59754 19.0088 9.62507 19.0134 9.65648C19.0243 9.78222 19.0353 9.90797 19.0424 10.0338C19.0425 10.0377 19.0426 10.0416 19.0426 10.0416C19.0441 10.0967 19.0494 10.1517 19.0509 10.2068C19.0515 10.2304 19.0522 10.2579 19.0529 10.2815C19.0542 10.3326 19.0557 10.3877 19.0571 10.4388C19.0577 10.4624 19.0585 10.49 19.0592 10.5175C16.6074 10.5961 14.2146 9.63886 12.4263 7.85737C10.6381 6.07588 9.61707 3.62496 9.58979 1.0637ZM1.81113 6.34311C3.16282 3.39775 5.89179 1.41015 9.02459 1.10423C9.03954 2.36319 9.28447 3.61061 9.74636 4.78373C10.2651 6.10546 11.0446 7.2971 12.0376 8.28464C13.027 9.27617 14.2026 10.0365 15.4916 10.5195C16.632 10.9499 17.8416 11.1469 19.0487 11.1119C18.8181 15.7353 15.3959 19.4615 10.9717 19.8982C10.9567 18.6393 10.7118 17.3918 10.2499 16.2187C9.73116 14.897 8.95164 13.7054 7.95864 12.7178C6.96931 11.7263 5.79365 10.966 4.50463 10.4829C3.40631 10.0716 2.24565 9.86981 1.08337 9.88842C1.03809 9.88914 0.992804 9.88987 0.947521 9.89059C1.00879 8.65795 1.30098 7.44915 1.81113 6.34311ZM0.939069 10.5597C0.938329 10.5321 0.937695 10.5085 0.936956 10.481C3.39254 10.4024 5.78157 11.3597 7.56983 13.1412C9.35443 14.9266 10.3754 17.3776 10.4065 19.9388C10.3687 19.9394 10.331 19.94 10.2895 19.9406L10.2555 19.9412C7.85172 19.9797 5.51929 19.0214 3.7736 17.2786C3.71541 17.2205 3.6611 17.1663 3.60668 17.1082C3.58729 17.0888 3.56789 17.0694 3.54839 17.0461C3.51337 17.0073 3.47835 16.9685 3.44333 16.9298L3.37717 16.856C3.34603 16.8211 3.31489 16.7862 3.28375 16.7513C3.26037 16.7241 3.24076 16.6969 3.21738 16.6697C3.19001 16.6347 3.15887 16.5998 3.1315 16.5649C3.10812 16.5377 3.08851 16.5105 3.06503 16.4793C3.03766 16.4444 3.01029 16.4094 2.98293 16.3744C2.95954 16.3472 2.93983 16.3161 2.91645 16.2889C2.88908 16.2539 2.86172 16.219 2.83812 16.1839C2.81453 16.1489 2.79503 16.1256 2.77532 16.0944C2.7556 16.0633 2.72435 16.0244 2.70076 15.9894L2.63795 15.8999L2.56707 15.7908L2.50793 15.6973C2.48434 15.6623 2.46074 15.6272 2.43704 15.5883C2.41335 15.5493 2.39762 15.526 2.3779 15.4948C2.35819 15.4636 2.33438 15.4207 2.31079 15.3857C2.2872 15.3506 2.27137 15.3233 2.25532 15.2882C2.23927 15.253 2.2118 15.2141 2.19188 15.1751C2.17195 15.1361 2.15612 15.1088 2.1364 15.0776C2.11669 15.0464 2.09666 15.0035 2.07673 14.9644C2.05681 14.9254 2.04098 14.8981 2.02504 14.8669C2.0091 14.8357 1.98518 14.7888 1.96537 14.7537C1.94555 14.7186 1.93338 14.6874 1.91744 14.6561C1.9015 14.6249 1.88136 14.578 1.86144 14.539C1.84539 14.5038 1.82945 14.4726 1.81718 14.4374C1.80491 14.4021 1.7811 14.3592 1.76495 14.3202C1.7488 14.2811 1.73674 14.2537 1.7207 14.2186C1.70465 14.1834 1.68839 14.1404 1.67214 14.0973L1.63165 13.9957C1.6155 13.9566 1.59924 13.9136 1.58687 13.8744C1.57459 13.8392 1.56232 13.804 1.54638 13.7727C1.53044 13.7415 1.51775 13.6906 1.5016 13.6515C1.48544 13.6124 1.47705 13.581 1.46478 13.5458C1.45251 13.5106 1.43614 13.4636 1.42377 13.4245C1.41139 13.3853 1.403 13.354 1.39072 13.3188C1.37824 13.2757 1.36586 13.2365 1.35338 13.1935C1.3409 13.1504 1.33261 13.123 1.32034 13.0877C1.30806 13.0525 1.29548 13.0055 1.28677 12.9624C1.27827 12.9271 1.266 12.8919 1.2575 12.8566C1.249 12.8213 1.23641 12.7743 1.2277 12.7311C1.21899 12.688 1.2107 12.6606 1.2021 12.6214C1.1935 12.5821 1.18479 12.539 1.1723 12.4959C1.15982 12.4528 1.1552 12.4214 1.1467 12.3861C1.13821 12.3509 1.12939 12.3038 1.12068 12.2606C1.11197 12.2175 1.10735 12.1861 1.09885 12.1508C1.09035 12.1155 1.08531 12.0684 1.0766 12.0252C1.06789 11.9821 1.06327 11.9507 1.05844 11.9114C1.05361 11.8721 1.0449 11.829 1.04007 11.7897C1.03524 11.7505 1.02664 11.7112 1.02181 11.672C1.01698 11.6327 1.01215 11.5934 1.00732 11.5542C1.00249 11.5149 0.99755 11.4717 0.992613 11.4285C0.987994 11.3971 0.987256 11.3695 0.982636 11.3381C0.971706 11.2124 0.960778 11.0866 0.953622 10.9608C0.953517 10.9569 0.953411 10.953 0.953411 10.953C0.951932 10.8979 0.946678 10.8429 0.945199 10.7878C0.944564 10.7642 0.943825 10.7367 0.943191 10.7131C0.941923 10.6659 0.940549 10.6147 0.939069 10.5597Z" fill="black"/>
</svg>
