<svg width="30" height="30" viewBox="0 0 30 30" fill="none" xmlns="http://www.w3.org/2000/svg">
<path d="M15 0C12.0333 0 9.13319 0.879735 6.66645 2.52796C4.19971 4.17618 2.27713 6.51886 1.14181 9.25975C0.00649922 12.0006 -0.290551 15.0166 0.288228 17.9264C0.867006 20.8361 2.29562 23.5088 4.3934 25.6066C6.49119 27.7044 9.16394 29.133 12.0737 29.7118C14.9834 30.2906 17.9994 29.9935 20.7403 28.8582C23.4811 27.7229 25.8238 25.8003 27.472 23.3335C29.1203 20.8668 30 17.9667 30 15C29.9954 11.0232 28.4136 7.21052 25.6015 4.39847C22.7895 1.58643 18.9768 0.00459636 15 0ZM14.9999 6.92308C15.3422 6.92308 15.6768 7.02458 15.9614 7.21476C16.246 7.40494 16.4679 7.67525 16.5989 7.99151C16.7299 8.30777 16.7642 8.65576 16.6974 8.9915C16.6306 9.32724 16.4658 9.63563 16.2237 9.87768C15.9816 10.1197 15.6733 10.2846 15.3375 10.3514C15.0018 10.4181 14.6538 10.3839 14.3375 10.2529C14.0213 10.1219 13.751 9.90003 13.5608 9.61541C13.3706 9.33078 13.2691 8.99616 13.2691 8.65384C13.2691 8.42656 13.3139 8.20149 13.4008 7.99151C13.4878 7.78152 13.6153 7.59072 13.776 7.43C13.9367 7.26929 14.1275 7.1418 14.3375 7.05482C14.5475 6.96784 14.7726 6.92308 14.9999 6.92308ZM16.1539 23.0769H15C14.8485 23.077 14.6984 23.0472 14.5583 22.9893C14.4183 22.9313 14.2911 22.8463 14.1839 22.7392C14.0768 22.632 13.9918 22.5048 13.9338 22.3647C13.8759 22.2247 13.8461 22.0746 13.8462 21.9231V15C13.5401 15 13.2467 14.8784 13.0303 14.662C12.8139 14.4457 12.6923 14.1522 12.6923 13.8462C12.6923 13.5401 12.8139 13.2466 13.0303 13.0303C13.2467 12.8139 13.5401 12.6923 13.8462 12.6923H15C15.1516 12.6922 15.3016 12.722 15.4417 12.78C15.5817 12.8379 15.7089 12.9229 15.8161 13.0301C15.9233 13.1372 16.0082 13.2645 16.0662 13.4045C16.1242 13.5445 16.1539 13.6946 16.1539 13.8462V20.7692C16.4599 20.7692 16.7534 20.8908 16.9697 21.1072C17.1861 21.3236 17.3077 21.6171 17.3077 21.9231C17.3077 22.2291 17.1861 22.5226 16.9697 22.739C16.7534 22.9554 16.4599 23.0769 16.1539 23.0769Z" fill="#666565"/>
</svg>
