<svg width="22" height="25" viewBox="0 0 22 25" fill="none" xmlns="http://www.w3.org/2000/svg">
<path d="M13.86 8.22708L16.1765 1.38889C16.1765 1.38889 15.9189 1.39028 15.5294 1.4125V0H14.2353V1.54097C12.7658 1.75139 11 2.25486 11 3.47222C11 2.25486 9.23418 1.75139 7.76471 1.54097V0H6.47059V1.4125C6.08171 1.39028 5.82353 1.38889 5.82353 1.38889L8.14065 8.22708L0 17.8076C0 17.8076 3.88235 25 11 25C18.1176 25 22 17.8076 22 17.8076L13.86 8.22708Z" fill="#55ACEE"/>
<path d="M14.2352 9.02783H7.76465V7.63894H14.2352V9.02783Z" fill="#BBDDF5"/>
<path d="M9.05875 9.02787C9.05875 9.02787 4.70146 14.657 5.79046 15.282C6.8801 15.9077 9.05875 9.02787 9.05875 9.02787Z" fill="#3B88C3"/>
<path d="M13.0032 9.02775C13.0032 9.02775 17.3605 14.6562 16.2715 15.2826C15.1818 15.9076 13.0032 9.02775 13.0032 9.02775Z" fill="#3B88C3"/>
<path d="M11 9.02786C11 9.02786 9.70585 16.6667 11 16.6667C12.2941 16.6667 11 9.02786 11 9.02786Z" fill="#3B88C3"/>
</svg>
