<svg width="30" height="30" viewBox="0 0 30 30" fill="none" xmlns="http://www.w3.org/2000/svg">
<path d="M24.375 0C25.8668 0 27.2976 0.790208 28.3525 2.19679C29.4074 3.60337 30 5.5111 30 7.5003V17.5007C30 19.4899 29.4074 21.3976 28.3525 22.8042C27.2976 24.2108 25.8668 25.001 24.375 25.001H7.5V27.5011C7.5 28.5111 7.0425 29.4262 6.34313 29.8112C6.00028 29.9994 5.62338 30.0482 5.25977 29.9517C4.89615 29.8552 4.56204 29.6176 4.29938 29.2687L0.549376 24.2685C0.375032 24.0366 0.236753 23.7611 0.142476 23.4577C0.0481987 23.1544 -0.000219427 22.8292 7.47539e-07 22.5009C7.47539e-07 21.8609 0.183751 21.2208 0.549376 20.7333L4.29938 15.7331C4.56181 15.3838 4.89594 15.1458 5.25964 15.0493C5.62335 14.9527 6.00035 15.0019 6.34313 15.1906C6.68556 15.3802 6.97821 15.7007 7.1841 16.1119C7.39 16.523 7.49993 17.0063 7.5 17.5007V20.0008H24.375C25.4119 20.0008 26.25 18.8833 26.25 17.5007V7.5003C26.25 6.83723 26.0525 6.20132 25.7008 5.73246C25.3492 5.2636 24.8723 5.0002 24.375 5.0002H9.375C8.8861 4.98337 8.42147 4.71258 8.08014 4.24555C7.73881 3.77853 7.54779 3.15221 7.54779 2.5001C7.54779 1.84799 7.73881 1.22167 8.08014 0.754647C8.42147 0.287622 8.8861 0.0168332 9.375 0H24.375Z" fill="#666565"/>
</svg>
