<svg width="40" height="40" viewBox="0 0 40 40" fill="none" xmlns="http://www.w3.org/2000/svg">
<path d="M29.2668 34.9997C29.0002 35.0008 28.7373 34.9379 28.5001 34.8164L20.0001 30.3664L11.5001 34.8164C11.2241 34.9615 10.9129 35.0263 10.6019 35.0034C10.2909 34.9804 9.99256 34.8707 9.74081 34.6867C9.48906 34.5026 9.29399 34.2517 9.17778 33.9623C9.06157 33.6729 9.02888 33.3567 9.08343 33.0497L10.7501 23.6664L3.88343 16.9997C3.66919 16.7859 3.51721 16.5178 3.44381 16.2242C3.3704 15.9306 3.37833 15.6225 3.46676 15.333C3.56336 15.0368 3.74105 14.7736 3.97968 14.5733C4.2183 14.373 4.5083 14.2435 4.81676 14.1997L14.3168 12.8164L18.5001 4.26636C18.6366 3.98457 18.8497 3.74693 19.1149 3.58064C19.3802 3.41436 19.687 3.32617 20.0001 3.32617C20.3132 3.32617 20.6199 3.41436 20.8852 3.58064C21.1505 3.74693 21.3636 3.98457 21.5001 4.26636L25.7334 12.7997L35.2334 14.183C35.5419 14.2269 35.8319 14.3563 36.0705 14.5566C36.3091 14.7569 36.4868 15.0201 36.5834 15.3164C36.6719 15.6058 36.6798 15.9139 36.6064 16.2075C36.533 16.5011 36.381 16.7692 36.1668 16.983L29.3001 23.6497L30.9668 33.033C31.0263 33.3455 30.9951 33.6684 30.877 33.9638C30.7588 34.2591 30.5587 34.5145 30.3001 34.6997C29.9983 34.9112 29.6349 35.0167 29.2668 34.9997Z" fill="#666565"/>
</svg>
